<?xml version="1.0" encoding="UTF-8" standalone="no"?>
<!-- Created with Inkscape (http://www.inkscape.org/) -->

<svg
   width="210mm"
   height="297mm"
   viewBox="0 0 210 297"
   version="1.1"
   id="svg1"
   inkscape:version="1.3.2 (091e20e, 2023-11-25, custom)"
   sodipodi:docname="рисунок.svg"
   xmlns:inkscape="http://www.inkscape.org/namespaces/inkscape"
   xmlns:sodipodi="http://sodipodi.sourceforge.net/DTD/sodipodi-0.dtd"
   xmlns="http://www.w3.org/2000/svg"
   xmlns:svg="http://www.w3.org/2000/svg">
  <sodipodi:namedview
     id="namedview1"
     pagecolor="#ffffff"
     bordercolor="#000000"
     borderopacity="0.25"
     inkscape:showpageshadow="2"
     inkscape:pageopacity="0.0"
     inkscape:pagecheckerboard="0"
     inkscape:deskcolor="#d1d1d1"
     inkscape:document-units="mm"
     inkscape:zoom="0.61736111"
     inkscape:cx="396.04049"
     inkscape:cy="561.25984"
     inkscape:window-width="1280"
     inkscape:window-height="949"
     inkscape:window-x="-9"
     inkscape:window-y="-9"
     inkscape:window-maximized="1"
     inkscape:current-layer="layer1" />
  <defs
     id="defs1" />
  <g
     inkscape:label="Слой 1"
     inkscape:groupmode="layer"
     id="layer1">
    <path
       style="fill:#00ff02;fill-opacity:1;stroke:#0dff00;stroke-width:0.619141;stroke-dashoffset:5.68598;stroke-opacity:1"
       id="path1"
       d="m 24.210033,79.27512 c 0.137431,0.20806 0.293091,0.40321 0.412293,0.62418 0.748697,1.38792 2.467333,5.00864 2.953353,6.0192 1.802199,3.74723 3.651567,7.4681 5.403406,11.24351 1.152823,2.48445 2.250034,4.999 3.375051,7.49852 7.075603,15.88495 12.411958,32.56437 17.149457,49.41762 2.604468,9.73128 4.913753,19.56036 6.375242,29.57868 0.834641,5.72137 0.928598,7.44225 1.454344,13.03977 0.447838,6.50895 0.30347,3.79701 0.564881,9.71119 0.05043,1.14061 0.04469,2.28557 0.147137,3.42203 0.06763,0.75036 -0.170462,1.74503 0.362102,2.22729 4.538421,4.10972 4.119309,3.41659 6.958843,0.91007 0.766183,-1.09847 1.579643,-2.15974 2.298551,-3.29545 2.105349,-3.32593 3.720312,-6.72764 5.7489,-10.135 1.350435,-2.26829 2.748629,-4.50459 4.212426,-6.688 4.347124,-6.48423 5.171274,-7.15859 10.239954,-13.31249 11.556527,-12.5018 24.091197,-24.05151 37.738527,-33.78214 2.83318,-2.02007 5.7748,-3.85402 8.6622,-5.78101 3.18731,-1.72247 6.32607,-3.5557 9.56193,-5.16741 10.50142,-5.23058 21.57619,-8.75184 32.33192,-13.26045 1.66908,-0.69966 3.30929,-1.47832 4.96394,-2.21748 0,0 -2.98596,-2.16196 -2.98596,-2.16196 v 0 c -1.56872,0.79501 -3.11755,1.63823 -4.70614,2.38505 -7.32785,3.44501 -14.9203,6.1546 -22.31142,9.42258 -3.13812,1.38751 -6.25691,2.83041 -9.33586,4.36687 -3.25935,1.6265 -6.44927,3.41294 -9.67392,5.11941 -2.87134,1.94442 -5.79364,3.80242 -8.61402,5.83325 -2.91057,2.0958 -5.74215,4.31961 -8.57231,6.542 -2.87304,2.25603 -5.73927,4.52486 -8.53576,6.89208 -7.37599,6.24375 -14.352007,13.04436 -21.023977,20.15802 -1.92619,2.24398 -3.94126,4.40139 -5.77858,6.73196 -2.228798,2.82718 -7.07678,10.03132 -9.070364,13.07785 -1.235524,1.88809 -2.423048,3.81284 -3.63138,5.72164 -0.858028,1.35545 -1.641729,2.76969 -2.567695,4.07109 -0.762142,1.07117 -1.657672,2.0216 -2.48651,3.03241 -0.6504,0.4324 -2.045071,0.47411 -1.951201,1.2972 0.128523,1.12693 1.311713,2.26092 2.35511,2.24439 0.72337,-0.0115 -0.470583,-1.49617 -0.59179,-2.27232 -0.180972,-1.15883 -0.212235,-2.33955 -0.31122,-3.51005 -0.744027,-8.79821 0.05876,0.0925 -0.865836,-9.89378 -0.50496,-4.44152 -0.954064,-8.73839 -1.628786,-13.16105 -1.531039,-10.03562 -3.84218,-19.90619 -6.452012,-29.66696 -2.376132,-8.03802 -4.753593,-16.07921 -7.470154,-23.99132 -1.999631,-5.82401 -4.145023,-11.47966 -6.390976,-17.19705 -1.092084,-2.78005 -2.228183,-5.53937 -3.342273,-8.30907 -1.041125,-2.46169 -2.053109,-4.93824 -3.123369,-7.3851 -7.634114,-17.45337 1.544679,4.01665 -4.937426,-11.00769 -4.885065,-11.322688 0.69065,1.57668 -2.333483,-5.77667 -0.0896,-0.21788 -0.217502,-0.41462 -0.326252,-0.62193 z" />
  </g>
</svg>
